/vscmnt/brussel_pixiu_data/_data_brussel/112/vsc11236/PredSimResults/SUBJ07mtu3D/worker3.mot
version=1
nRows=5
nColumns=50
inDegrees=yes
endheader
                time	         pelvis_tilt	         pelvis_list	     pelvis_rotation	           pelvis_tx	           pelvis_ty	           pelvis_tz	       hip_flexion_r	     hip_adduction_r	      hip_rotation_r	        knee_angle_r	       ankle_angle_r	         mtp_angle_r	       hip_flexion_l	     hip_adduction_l	      hip_rotation_l	        knee_angle_l	       ankle_angle_l	         mtp_angle_l	    lumbar_extension	      lumbar_bending	     lumbar_rotation	 ercspn_r/activation	 intobl_r/activation	 extobl_r/activation	    abd_r/activation	    add_r/activation	hamstrings_r/activation	bifemsh_r/activation	glut_max_r/activation	iliopsoas_r/activation	rect_fem_r/activation	  vasti_r/activation	gastroc_r/activation	 soleus_r/activation	tib_ant_r/activation	 ercspn_l/activation	 intobl_l/activation	 extobl_l/activation	    abd_l/activation	    add_l/activation	hamstrings_l/activation	bifemsh_l/activation	glut_max_l/activation	iliopsoas_l/activation	rect_fem_l/activation	  vasti_l/activation	gastroc_l/activation	 soleus_l/activation	tib_ant_l/activation	
          1.66664919	         -3.75794219	          0.02000105	         -8.45161860	          2.03331201	          0.85035859	          0.01301476	        -14.90336368	          0.09150321	          3.48798560	         -8.70766658	          7.58827308	         28.36141468	         29.70661013	         -2.55772073	         -4.62829362	         -6.39233167	          1.43927502	          0.26348019	        -11.13393072	          1.92167389	          1.12097638	          0.10799647	          0.00999999	          0.00999999	          0.03435522	          0.01442897	          0.01000029	          0.15749143	          0.01664776	          0.13969372	          0.00999999	          0.00999999	          0.13974403	          0.27939052	          0.01973066	          0.13237588	          0.14801150	          0.00999999	          0.01233278	          0.12019621	          0.07159235	          0.13175689	          0.06568428	          0.03284713	          0.00999999	          0.00999999	          0.00999999	          0.00999999	          0.41352994	
          1.67776018	         -3.77709128	         -0.02665592	         -8.48200985	          2.04899005	          0.84889555	          0.01270938	        -15.35947484	          0.01438317	          3.16623544	         -9.71298898	          6.60167752	         29.94840984	         29.50781639	         -2.31359011	         -4.44971470	         -7.74944461	          1.10436971	          0.26133178	        -11.05624959	          1.53201979	          1.32339966	          0.13401300	          0.00999999	          0.00999999	          0.02898727	          0.02485263	          0.01697229	          0.13288361	          0.01404658	          0.16784728	          0.01000002	          0.01000000	          0.11790922	          0.25957828	          0.01664777	          0.11169234	          0.12488491	          0.00999999	          0.01040580	          0.13550624	          0.06040614	          0.14334322	          0.11606500	          0.02771481	          0.01000000	          0.00999999	          0.01664777	          0.01404658	          0.43196581	
          1.68887118	         -3.78582834	         -0.06842165	         -8.46986388	          2.06490910	          0.84756869	          0.01236131	        -15.68970209	         -0.05754864	          2.81468404	        -10.98462951	          5.53255470	         31.46843968	         29.19608048	         -2.15392021	         -4.13156586	         -9.10485822	          0.73441511	          0.24965286	        -10.96482462	          1.12906597	          1.52256301	          0.14824885	          0.00999999	          0.00999999	          0.02445805	          0.02565771	          0.01432042	          0.11212073	          0.01185182	          0.14162138	          0.00999999	          0.00999999	          0.09948607	          0.23864516	          0.01404658	          0.12907736	          0.10537182	          0.00999999	          0.07656386	          0.13346490	          0.06519225	          0.14549966	          0.12436584	          0.02338441	          0.00999999	          0.00999999	          0.01404658	          0.01185182	          0.50150062	
          1.69998217	         -3.78801746	         -0.12943710	         -8.41064842	          2.08087383	          0.84653761	          0.01190632	        -15.80744306	         -0.09836770	          2.43977252	        -12.64263581	          4.34916379	         32.88006114	         28.84348597	         -2.02044627	         -3.86042350	        -10.37463103	          0.28826320	          0.23402794	        -10.88253196	          0.74955802	          1.71293174	          0.17565859	          0.00999999	          0.00999999	          0.02063651	          0.02826780	          0.01259386	          0.09460202	          0.00999999	          0.11949324	          0.01000000	          0.00999999	          0.08394151	          0.20749864	          0.01185182	          0.14823623	          0.08890762	          0.00999999	          0.13011667	          0.15247424	          0.06073084	          0.12276554	          0.14278596	          0.01973063	          0.00999999	          0.00999999	          0.01185182	          0.00999999	          0.54083611	
          1.71109317	         -3.78402724	         -0.20444834	         -8.30983682	          2.09670623	          0.84595622	          0.01135462	        -15.63290778	         -0.11316143	          2.04356667	        -14.79783693	          3.05747433	         34.05585652	         28.54147351	         -1.89808413	         -3.63577146	        -11.75752417	          0.02353356	          0.21326262	        -10.82384478	          0.38684294	          1.89201759	          0.21984344	          0.00999999	          0.00999999	          0.01741208	          0.03931381	          0.01424448	          0.07982059	          0.00999999	          0.10082259	          0.00999999	          0.00999999	          0.07082576	          0.17507726	          0.00999999	          0.15737671	          0.07501592	          0.00999999	          0.17845731	          0.17589023	          0.05278086	          0.10358360	          0.17357313	          0.01664775	          0.00999999	          0.00999999	          0.00999999	          0.00999999	          0.54341480	
